<svg xmlns="http://www.w3.org/2000/svg" xmlns:xlink="http://www.w3.org/1999/xlink" version="1.1" x="0px" y="0px"
  viewBox="0 0 640 612" xml:space="preserve">
  <g>
    <path d="M439.523,460.189c0,22.613-62.613-2.95-115.594-2.95c-52.981,0-115.595,26.547-115.595,2.95   c0-19.006,62.613-60.959,115.595-60.959C376.91,399.23,439.523,441.184,439.523,460.189z" />
    <path d="M326.201,409.387c0.74-0.473,54.161-120.029,35.14-132.525c-0.08-0.053,45.784,13.021,24.542,34.262   c-53.424,43.877-2.141,128.194,15.229,132.218c24.088-24.088-107.228-50.325-75.205-18.303   c31.818-31.818-101.724-8.936-75.453,17.335c13.688-1.888,65.279-89.541,14.798-131.001   c-22.029-22.029,24.127-34.563,24.046-34.511C269.249,290.033,326.201,409.387,326.201,409.387z" />
    <path d="M390.271,294.256c-15.407-15.407-20.949,114.661-64.761,114.661c-50.081,0-47.895-131.526-64.759-114.661   c-35.835,35.835,23.964,130.928,64.759,130.928C366.307,425.184,426.197,330.182,390.271,294.256z" />
  </g>
  <path d="M351.512,240.943c0-70.94-117.523,74.53-25.642,7.741c92.549,67.272-25.637-78.682-25.637-7.741  c-78.167-56.817,120.659-176.748,25.637-107.678C231.221,64.466,428.539,184.954,351.512,240.943z" />
</svg>